<svg width="399" height="547" fill="none" xmlns="http://www.w3.org/2000/svg"><g filter="url(#filter0_d)"><rect x="60.721" y="274.186" width="277.69" height="269.628" rx="4.479" fill="#fff"/><path d="M82.092 524.253v-7.073h2.534v-1.291h-6.534v1.291h2.533v7.073h1.467zM87.255 524.404c1.931 0 3.11-1.455 3.11-3.186 0-1.743-1.179-3.172-3.11-3.172-1.931 0-3.11 1.429-3.11 3.172 0 1.731 1.179 3.186 3.11 3.186zm0-1.167c-1.116 0-1.743-.94-1.743-2.019 0-1.066.627-2.006 1.743-2.006 1.129 0 1.743.94 1.743 2.006 0 1.079-.614 2.019-1.743 2.019zM94.97 524.404c1.568 0 2.684-1.192 2.684-3.186s-1.116-3.172-2.683-3.172c-.79 0-1.493.376-1.944.978v-.828H91.71v8.365h1.317v-3.148c.501.64 1.178.991 1.944.991zm-.388-1.167c-.615 0-1.267-.376-1.555-.827v-2.396c.3-.451.94-.802 1.555-.802 1.04 0 1.718.828 1.718 2.006 0 1.179-.677 2.019-1.718 2.019zM105.704 524.253v-7.073h2.534v-1.291h-6.534v1.291h2.533v7.073h1.467zM109.817 524.253v-4.126c.264-.439 1.003-.815 1.568-.815.163 0 .288.013.401.038v-1.304c-.777 0-1.505.451-1.969 1.028v-.878H108.5v6.057h1.317zM117.877 524.253v-4.025c0-1.618-1.179-2.182-2.533-2.182-.966 0-1.844.301-2.546.978l.552.915c.514-.527 1.116-.777 1.793-.777.828 0 1.417.426 1.417 1.128v.903c-.451-.514-1.141-.777-1.969-.777-.991 0-2.094.577-2.094 1.981 0 1.33 1.116 2.007 2.094 2.007.803 0 1.518-.289 1.969-.815v.664h1.317zm-2.759-.752c-.74 0-1.304-.427-1.304-1.091 0-.652.564-1.091 1.304-1.091.564 0 1.129.213 1.442.627v.928c-.313.414-.878.627-1.442.627zM122.343 524.404c1.191 0 1.893-.514 2.32-1.079l-.865-.815c-.339.477-.803.727-1.392.727-1.092 0-1.831-.84-1.831-2.019 0-1.178.739-2.006 1.831-2.006.589 0 1.053.226 1.392.702l.865-.79c-.427-.577-1.129-1.078-2.32-1.078-1.831 0-3.123 1.341-3.123 3.172 0 1.831 1.292 3.186 3.123 3.186zM131.498 524.253l-2.558-3.311 2.508-2.746h-1.63l-2.671 2.922v-5.229h-1.317v8.364h1.317v-1.63l.852-.878 1.844 2.508h1.655zM133.108 517.456a.814.814 0 100-1.63.813.813 0 00-.815.815c0 .451.363.815.815.815zm.652 6.797v-6.057h-1.317v6.057h1.317zM140.886 524.253v-4.264c0-1.241-.652-1.943-1.957-1.943-.953 0-1.743.489-2.144.965v-.815h-1.317v6.057h1.317v-4.239c.313-.401.89-.802 1.555-.802.74 0 1.229.301 1.229 1.254v3.787h1.317zM145.066 526.711c1.48 0 3.11-.589 3.11-2.771v-5.744h-1.316v.84c-.489-.652-1.179-.99-1.944-.99-1.568 0-2.684 1.141-2.684 3.11 0 1.994 1.141 3.11 2.684 3.11.79 0 1.48-.402 1.944-1.016v.69c0 1.291-.928 1.693-1.794 1.693-.802 0-1.429-.213-1.931-.778l-.614.953c.752.678 1.517.903 2.545.903zm.239-3.624c-1.054 0-1.719-.765-1.719-1.931 0-1.167.665-1.944 1.719-1.944.614 0 1.254.364 1.555.802v2.27c-.301.439-.941.803-1.555.803zM157.066 524.404c2.496 0 4.277-1.831 4.277-4.327 0-2.495-1.781-4.326-4.277-4.326-2.508 0-4.276 1.831-4.276 4.326 0 2.496 1.768 4.327 4.276 4.327zm0-1.305c-1.693 0-2.771-1.304-2.771-3.022 0-1.73 1.078-3.022 2.771-3.022 1.681 0 2.772 1.292 2.772 3.022 0 1.718-1.091 3.022-2.772 3.022zM164.348 524.253v-4.916h1.229v-1.141h-1.229v-.339c0-.677.314-1.015.84-1.015.289 0 .514.1.69.263l.514-.815c-.363-.389-.903-.527-1.455-.527-1.141 0-1.906.778-1.906 2.094v.339h-1.003v1.141h1.003v4.916h1.317zm3.875 0v-4.916h1.229v-1.141h-1.229v-.339c0-.677.314-1.015.84-1.015.289 0 .515.1.69.263l.514-.815c-.363-.389-.903-.527-1.454-.527-1.142 0-1.907.778-1.907 2.094v.339h-1.003v1.141h1.003v4.916h1.317zM173.254 524.404c.953 0 1.844-.314 2.458-.891l-.602-.865c-.439.439-1.128.677-1.73.677-1.141 0-1.819-.765-1.919-1.668h4.665v-.326c0-1.906-1.154-3.285-2.972-3.285-1.793 0-3.072 1.417-3.072 3.172 0 1.919 1.341 3.186 3.172 3.186zm1.606-3.687h-3.412c.051-.728.577-1.593 1.694-1.593 1.191 0 1.68.878 1.718 1.593zM182.844 524.253v-4.264c0-1.241-.653-1.943-1.957-1.943-.953 0-1.743.489-2.144.965v-.815h-1.317v6.057h1.317v-4.239c.313-.401.89-.802 1.555-.802.74 0 1.229.301 1.229 1.254v3.787h1.317zM190.134 524.253v-8.364h-1.316v3.147a2.362 2.362 0 00-1.944-.99c-1.555 0-2.684 1.216-2.684 3.172 0 2.007 1.141 3.186 2.684 3.186.79 0 1.48-.376 1.944-.978v.827h1.316zm-2.872-1.016c-1.053 0-1.718-.84-1.718-2.019 0-1.166.665-2.006 1.718-2.006.615 0 1.267.364 1.556.815v2.395c-.289.452-.941.815-1.556.815zM194.65 524.404c.953 0 1.843-.314 2.458-.891l-.602-.865c-.439.439-1.129.677-1.731.677-1.141 0-1.818-.765-1.919-1.668h4.666v-.326c0-1.906-1.154-3.285-2.973-3.285-1.793 0-3.072 1.417-3.072 3.172 0 1.919 1.342 3.186 3.173 3.186zm1.605-3.687h-3.411c.05-.728.577-1.593 1.693-1.593 1.191 0 1.68.878 1.718 1.593zM200.138 524.253v-4.126c.263-.439 1.003-.815 1.568-.815.163 0 .288.013.401.038v-1.304c-.778 0-1.505.451-1.969 1.028v-.878h-1.317v6.057h1.317zM205.251 524.404c1.63 0 2.52-.815 2.52-1.894 0-2.408-3.661-1.605-3.661-2.671 0-.427.426-.753 1.116-.753.765 0 1.429.326 1.793.728l.552-.928c-.539-.477-1.317-.84-2.345-.84-1.53 0-2.383.84-2.383 1.83 0 2.333 3.662 1.48 3.662 2.672 0 .476-.414.802-1.204.802-.778 0-1.618-.401-2.044-.84l-.602.941c.627.614 1.555.953 2.596.953z" fill="#333"/><path fill-rule="evenodd" clip-rule="evenodd" d="M317.165 515.4a.856.856 0 000 1.215l3.932 3.909-3.932 3.908a.858.858 0 000 1.216.87.87 0 001.222 0l4.544-4.517a.858.858 0 000-1.215l-4.544-4.516a.869.869 0 00-1.222 0z" fill="#AAA"/><g clip-path="url(#clip0)"><path d="M224.346 481.152l-1.91-3.051c.943-.151 1.851-.908 1.851-2.282 0-1.444-1.013-2.434-2.55-2.434h-3.412v7.767h1.363v-2.899h1.362l1.712 2.899h1.584zm-2.783-4.099h-1.875v-2.468h1.875c.768 0 1.327.477 1.327 1.222 0 .757-.559 1.246-1.327 1.246zM228.049 481.292c.885 0 1.712-.291 2.282-.827l-.559-.803c-.407.407-1.048.629-1.607.629-1.059 0-1.688-.711-1.781-1.549h4.332v-.303c0-1.77-1.072-3.051-2.76-3.051-1.665 0-2.853 1.316-2.853 2.946 0 1.782 1.246 2.958 2.946 2.958zm1.491-3.424h-3.168c.047-.675.536-1.478 1.572-1.478 1.106 0 1.561.815 1.596 1.478zM235.13 481.292c1.455 0 2.492-1.106 2.492-2.958 0-1.851-1.037-2.946-2.492-2.946-.734 0-1.386.349-1.805.908v-.768h-1.223v7.767h1.223v-2.923c.465.594 1.094.92 1.805.92zm-.361-1.083c-.571 0-1.177-.349-1.444-.768v-2.225c.279-.419.873-.745 1.444-.745.966 0 1.595.769 1.595 1.863 0 1.095-.629 1.875-1.595 1.875zM241.575 481.292c1.793 0 2.888-1.351 2.888-2.958 0-1.618-1.095-2.946-2.888-2.946s-2.888 1.328-2.888 2.946c0 1.607 1.095 2.958 2.888 2.958zm0-1.083c-1.037 0-1.619-.873-1.619-1.875 0-.99.582-1.863 1.619-1.863 1.048 0 1.619.873 1.619 1.863 0 1.002-.571 1.875-1.619 1.875zM247.113 481.152v-3.831c.245-.407.932-.757 1.456-.757.151 0 .268.012.373.035v-1.211c-.722 0-1.398.419-1.829.955v-.815h-1.222v5.624h1.222zM251.807 481.292c.559 0 .92-.163 1.141-.361l-.291-.932c-.093.105-.303.21-.536.21-.349 0-.535-.291-.535-.675v-2.947h1.141v-1.059h-1.141v-1.537h-1.223v1.537h-.932v1.059h.932v3.249c0 .944.489 1.456 1.444 1.456zM261.145 481.152c1.468 0 2.26-.896 2.26-2.107 0-.944-.664-1.77-1.503-1.899.722-.151 1.351-.815 1.351-1.781 0-1.095-.78-1.98-2.212-1.98h-3.82v7.767h3.924zm-.372-4.565h-2.19v-2.002h2.19c.687 0 1.083.43 1.083 1.001 0 .594-.396 1.001-1.083 1.001zm.058 3.366h-2.248v-2.166h2.248c.769 0 1.176.501 1.176 1.083 0 .675-.442 1.083-1.176 1.083zM266.15 481.152v-3.831c.245-.407.932-.757 1.456-.757.151 0 .268.012.373.035v-1.211c-.722 0-1.398.419-1.829.955v-.815h-1.222v5.624h1.222zM271.694 481.292c1.794 0 2.888-1.351 2.888-2.958 0-1.618-1.094-2.946-2.888-2.946-1.793 0-2.888 1.328-2.888 2.946 0 1.607 1.095 2.958 2.888 2.958zm0-1.083c-1.036 0-1.618-.873-1.618-1.875 0-.99.582-1.863 1.618-1.863 1.048 0 1.619.873 1.619 1.863 0 1.002-.571 1.875-1.619 1.875zM281.274 481.152l-2.376-3.074 2.329-2.55h-1.514l-2.48 2.713v-4.856h-1.223v7.767h1.223v-1.514l.792-.815 1.711 2.329h1.538zM284.882 481.292c.885 0 1.711-.291 2.282-.827l-.559-.803c-.407.407-1.048.629-1.607.629-1.06 0-1.688-.711-1.782-1.549h4.332v-.303c0-1.77-1.071-3.051-2.759-3.051-1.666 0-2.854 1.316-2.854 2.946 0 1.782 1.246 2.958 2.947 2.958zm1.49-3.424h-3.167c.046-.675.535-1.478 1.572-1.478 1.106 0 1.56.815 1.595 1.478zM293.965 481.152v-3.959c0-1.153-.605-1.805-1.817-1.805-.885 0-1.618.454-1.991.897v-.757h-1.223v5.624h1.223v-3.936c.291-.372.827-.745 1.444-.745.687 0 1.141.28 1.141 1.165v3.516h1.223zM301.615 481.292c2.085 0 3.005-1.118 3.005-2.41 0-2.888-4.519-1.992-4.519-3.447 0-.571.513-.967 1.305-.967.815 0 1.642.28 2.259.897l.768-1.013c-.71-.699-1.7-1.095-2.899-1.095-1.712 0-2.83.99-2.83 2.282 0 2.853 4.518 1.84 4.518 3.471 0 .524-.431 1.071-1.549 1.071a3.335 3.335 0 01-2.457-1.083l-.768 1.06c.698.722 1.735 1.234 3.167 1.234zM306.624 474.841a.756.756 0 100-1.514.756.756 0 100 1.514zm.606 6.311v-5.624h-1.223v5.624h1.223zM310.695 481.292c.559 0 .92-.163 1.141-.361l-.291-.932c-.093.105-.302.21-.535.21-.35 0-.536-.291-.536-.675v-2.947h1.141v-1.059h-1.141v-1.537h-1.223v1.537h-.931v1.059h.931v3.249c0 .944.489 1.456 1.444 1.456zM315.501 481.292c.885 0 1.712-.291 2.283-.827l-.559-.803c-.408.407-1.048.629-1.607.629-1.06 0-1.689-.711-1.782-1.549h4.332v-.303c0-1.77-1.071-3.051-2.76-3.051-1.665 0-2.853 1.316-2.853 2.946 0 1.782 1.246 2.958 2.946 2.958zm1.491-3.424h-3.167c.046-.675.535-1.478 1.572-1.478 1.106 0 1.56.815 1.595 1.478z" fill="#333"/><path d="M197.774 457.82h.896v39.414h-.896V457.82z" fill="#000" fill-opacity=".05"/><path d="M84.023 481.292c2.26 0 3.366-1.293 3.366-3.214v-4.693h-1.386v4.658c0 1.234-.687 2.038-1.98 2.038-1.292 0-1.98-.804-1.98-2.038v-4.658h-1.385v4.693c0 1.921 1.118 3.214 3.365 3.214zM94.214 481.152v-3.959c0-1.153-.606-1.805-1.817-1.805-.885 0-1.618.454-1.991.897v-.757h-1.223v5.624h1.223v-3.936c.291-.372.827-.745 1.444-.745.687 0 1.141.28 1.141 1.165v3.516h1.223zM99.009 481.292c1.455 0 2.492-1.106 2.492-2.958 0-1.851-1.037-2.946-2.492-2.946-.734 0-1.386.349-1.805.908v-.768H95.98v7.767h1.223v-2.923c.466.594 1.094.92 1.805.92zm-.361-1.083c-.571 0-1.176-.349-1.444-.768v-2.225c.28-.419.873-.745 1.444-.745.966 0 1.595.769 1.595 1.863 0 1.095-.629 1.875-1.595 1.875zM104.126 481.152v-3.831c.245-.407.932-.757 1.456-.757.152 0 .268.012.373.035v-1.211c-.722 0-1.398.419-1.829.955v-.815h-1.222v5.624h1.222zM109.67 481.292c1.794 0 2.888-1.351 2.888-2.958 0-1.618-1.094-2.946-2.888-2.946-1.793 0-2.888 1.328-2.888 2.946 0 1.607 1.095 2.958 2.888 2.958zm0-1.083c-1.036 0-1.618-.873-1.618-1.875 0-.99.582-1.863 1.618-1.863 1.048 0 1.619.873 1.619 1.863 0 1.002-.571 1.875-1.619 1.875zM115.686 481.292c.559 0 .92-.163 1.141-.361l-.291-.932c-.093.105-.303.21-.535.21-.35 0-.536-.291-.536-.675v-2.947h1.141v-1.059h-1.141v-1.537h-1.223v1.537h-.931v1.059h.931v3.249c0 .944.489 1.456 1.444 1.456zM120.492 481.292c.885 0 1.712-.291 2.283-.827l-.559-.803c-.408.407-1.048.629-1.607.629-1.06 0-1.689-.711-1.782-1.549h4.332v-.303c0-1.77-1.071-3.051-2.76-3.051-1.665 0-2.853 1.316-2.853 2.946 0 1.782 1.246 2.958 2.946 2.958zm1.491-3.424h-3.168c.047-.675.536-1.478 1.573-1.478 1.106 0 1.56.815 1.595 1.478zM127.107 481.292c1.106 0 1.758-.477 2.154-1.001l-.803-.757c-.315.442-.745.675-1.293.675-1.013 0-1.7-.78-1.7-1.875 0-1.094.687-1.863 1.7-1.863.548 0 .978.21 1.293.652l.803-.733c-.396-.536-1.048-1.002-2.154-1.002-1.7 0-2.9 1.246-2.9 2.946 0 1.7 1.2 2.958 2.9 2.958zM132.224 481.292c.559 0 .92-.163 1.141-.361l-.291-.932c-.093.105-.302.21-.535.21-.35 0-.536-.291-.536-.675v-2.947h1.141v-1.059h-1.141v-1.537h-1.223v1.537h-.931v1.059h.931v3.249c0 .944.489 1.456 1.444 1.456zM137.03 481.292c.885 0 1.712-.291 2.283-.827l-.559-.803c-.408.407-1.048.629-1.607.629-1.06 0-1.689-.711-1.782-1.549h4.332v-.303c0-1.77-1.071-3.051-2.76-3.051-1.665 0-2.853 1.316-2.853 2.946 0 1.782 1.246 2.958 2.946 2.958zm1.491-3.424h-3.168c.047-.675.536-1.478 1.573-1.478 1.106 0 1.56.815 1.595 1.478zM146.265 481.152v-7.767h-1.223v2.923a2.19 2.19 0 00-1.805-.92c-1.444 0-2.492 1.13-2.492 2.946 0 1.863 1.06 2.958 2.492 2.958.734 0 1.375-.349 1.805-.908v.768h1.223zm-2.667-.943c-.978 0-1.595-.78-1.595-1.875 0-1.083.617-1.863 1.595-1.863.571 0 1.177.338 1.444.757v2.224c-.267.419-.873.757-1.444.757zM153.912 481.292c2.084 0 3.004-1.118 3.004-2.41 0-2.888-4.518-1.992-4.518-3.447 0-.571.512-.967 1.304-.967.815 0 1.642.28 2.259.897l.769-1.013c-.71-.699-1.7-1.095-2.9-1.095-1.712 0-2.83.99-2.83 2.282 0 2.853 4.519 1.84 4.519 3.471 0 .524-.431 1.071-1.549 1.071a3.335 3.335 0 01-2.457-1.083l-.769 1.06c.699.722 1.735 1.234 3.168 1.234zM158.921 474.841a.756.756 0 100-1.514.755.755 0 00-.757.757c0 .419.337.757.757.757zm.605 6.311v-5.624h-1.222v5.624h1.222zM162.992 481.292c.559 0 .92-.163 1.141-.361l-.291-.932c-.093.105-.303.21-.536.21-.349 0-.535-.291-.535-.675v-2.947h1.141v-1.059h-1.141v-1.537h-1.223v1.537h-.932v1.059h.932v3.249c0 .944.489 1.456 1.444 1.456zM167.798 481.292c.885 0 1.712-.291 2.282-.827l-.559-.803c-.407.407-1.048.629-1.607.629-1.059 0-1.688-.711-1.781-1.549h4.332v-.303c0-1.77-1.072-3.051-2.76-3.051-1.665 0-2.853 1.316-2.853 2.946 0 1.782 1.246 2.958 2.946 2.958zm1.49-3.424h-3.167c.047-.675.536-1.478 1.572-1.478 1.106 0 1.561.815 1.595 1.478zM173.784 481.292c1.514 0 2.34-.757 2.34-1.758 0-2.236-3.4-1.491-3.4-2.481 0-.396.396-.698 1.036-.698.711 0 1.328.302 1.666.675l.512-.862c-.501-.442-1.223-.78-2.178-.78-1.42 0-2.212.78-2.212 1.7 0 2.166 3.4 1.374 3.4 2.481 0 .442-.384.745-1.118.745-.722 0-1.502-.373-1.898-.78l-.559.873c.582.571 1.444.885 2.411.885z" fill="#333"/></g><path d="M60.72 497.234h277.691v.895H60.721v-.895z" fill="#000" fill-opacity=".05"/><path fill="#EEE" fill-opacity=".5" d="M60.72 412.135h277.69v44.789H60.72z"/><g clip-path="url(#clip1)"><path d="M81.503 438.409c2.245 0 3.235-1.203 3.235-2.595 0-3.111-4.865-2.145-4.865-3.713 0-.614.551-1.04 1.404-1.04.878 0 1.768.301 2.433.965l.828-1.091c-.765-.752-1.831-1.179-3.123-1.179-1.843 0-3.047 1.066-3.047 2.458 0 3.073 4.866 1.982 4.866 3.737 0 .565-.465 1.154-1.668 1.154a3.595 3.595 0 01-2.647-1.166l-.827 1.141c.752.778 1.868 1.329 3.41 1.329zM86.704 431.462a.814.814 0 00.815-.815.813.813 0 00-.815-.815.813.813 0 00-.815.815c0 .451.364.815.815.815zm.652 6.797v-6.057H86.04v6.057h1.316zM90.895 438.409c.603 0 .991-.175 1.23-.388l-.314-1.004c-.1.113-.326.226-.577.226-.376 0-.577-.313-.577-.727v-3.173h1.23v-1.141h-1.23v-1.656H89.34v1.656h-1.003v1.141h1.003v3.499c0 1.016.527 1.567 1.555 1.567zM95.878 438.409c.954 0 1.844-.313 2.458-.89l-.602-.865c-.438.439-1.128.677-1.73.677-1.141 0-1.819-.765-1.919-1.668h4.665v-.326c0-1.906-1.153-3.286-2.972-3.286-1.793 0-3.072 1.417-3.072 3.173 0 1.919 1.341 3.185 3.172 3.185zm1.606-3.687h-3.411c.05-.727.576-1.592 1.693-1.592 1.19 0 1.68.878 1.718 1.592zM104.788 438.259v-3.135h2.22c1.743 0 2.721-1.192 2.721-2.609 0-1.429-.965-2.621-2.721-2.621h-3.687v8.365h1.467zm2.019-4.427h-2.019v-2.646h2.019c.828 0 1.417.527 1.417 1.329 0 .79-.589 1.317-1.417 1.317zM112.242 438.259v-4.126c.263-.439 1.003-.815 1.568-.815.163 0 .288.012.401.038v-1.305c-.778 0-1.505.452-1.969 1.029v-.878h-1.317v6.057h1.317zM115.938 431.462a.814.814 0 100-1.63.814.814 0 100 1.63zm.652 6.797v-6.057h-1.317v6.057h1.317zM121.308 438.259l2.47-6.057h-1.404l-1.769 4.54-1.768-4.54h-1.417l2.471 6.057h1.417zM129.634 438.259v-4.026c0-1.617-1.179-2.182-2.533-2.182-.966 0-1.844.301-2.546.978l.552.916c.514-.527 1.116-.778 1.793-.778.828 0 1.417.427 1.417 1.129v.903c-.451-.514-1.141-.778-1.969-.778-.99 0-2.094.577-2.094 1.982 0 1.329 1.116 2.006 2.094 2.006.803 0 1.518-.288 1.969-.815v.665h1.317zm-2.759-.752c-.74 0-1.304-.427-1.304-1.092 0-.652.564-1.091 1.304-1.091.564 0 1.129.214 1.442.627v.928c-.313.414-.878.628-1.442.628zM134.1 438.409c1.191 0 1.894-.514 2.32-1.078l-.865-.815c-.339.476-.803.727-1.392.727-1.092 0-1.831-.84-1.831-2.019 0-1.179.739-2.006 1.831-2.006.589 0 1.053.225 1.392.702l.865-.79c-.426-.577-1.129-1.079-2.32-1.079-1.831 0-3.123 1.342-3.123 3.173s1.292 3.185 3.123 3.185zM137.336 440.629c.176.05.552.088.74.088.94-.013 1.655-.339 2.069-1.367l2.922-7.148h-1.404l-1.769 4.54-1.768-4.54h-1.417l2.496 6.132-.301.69c-.176.401-.452.527-.878.527a1.37 1.37 0 01-.502-.101l-.188 1.179zM148.632 438.259v-3.135h2.22c1.743 0 2.721-1.192 2.721-2.609 0-1.429-.966-2.621-2.721-2.621h-3.687v8.365h1.467zm2.019-4.427h-2.019v-2.646h2.019c.828 0 1.417.527 1.417 1.329 0 .79-.589 1.317-1.417 1.317zM156.086 438.259v-4.126c.263-.439 1.003-.815 1.568-.815.163 0 .288.012.401.038v-1.305c-.778 0-1.505.452-1.969 1.029v-.878h-1.317v6.057h1.317zM161.863 438.409c1.932 0 3.11-1.454 3.11-3.185 0-1.743-1.178-3.173-3.11-3.173-1.931 0-3.11 1.43-3.11 3.173 0 1.731 1.179 3.185 3.11 3.185zm0-1.166c-1.116 0-1.743-.94-1.743-2.019 0-1.066.627-2.006 1.743-2.006 1.129 0 1.743.94 1.743 2.006 0 1.079-.614 2.019-1.743 2.019zM168.149 438.409c.602 0 .991-.175 1.229-.388l-.314-1.004c-.1.113-.326.226-.576.226-.377 0-.577-.313-.577-.727v-3.173h1.229v-1.141h-1.229v-1.656h-1.317v1.656h-1.003v1.141h1.003v3.499c0 1.016.527 1.567 1.555 1.567zM173.132 438.409c.953 0 1.843-.313 2.458-.89l-.602-.865c-.439.439-1.129.677-1.731.677-1.141 0-1.818-.765-1.918-1.668h4.665v-.326c0-1.906-1.154-3.286-2.972-3.286-1.794 0-3.073 1.417-3.073 3.173 0 1.919 1.342 3.185 3.173 3.185zm1.605-3.687h-3.411c.05-.727.577-1.592 1.693-1.592 1.191 0 1.681.878 1.718 1.592zM180.062 438.409c1.192 0 1.894-.514 2.321-1.078l-.866-.815c-.338.476-.802.727-1.392.727-1.091 0-1.831-.84-1.831-2.019 0-1.179.74-2.006 1.831-2.006.59 0 1.054.225 1.392.702l.866-.79c-.427-.577-1.129-1.079-2.321-1.079-1.83 0-3.122 1.342-3.122 3.173s1.292 3.185 3.122 3.185zM185.38 438.409c.602 0 .991-.175 1.229-.388l-.313-1.004c-.1.113-.326.226-.577.226-.376 0-.577-.313-.577-.727v-3.173h1.229v-1.141h-1.229v-1.656h-1.317v1.656h-1.003v1.141h1.003v3.499c0 1.016.527 1.567 1.555 1.567zM188.219 431.462a.814.814 0 100-1.63.813.813 0 00-.815.815c0 .451.363.815.815.815zm.652 6.797v-6.057h-1.317v6.057h1.317zM193.326 438.409c1.931 0 3.11-1.454 3.11-3.185 0-1.743-1.179-3.173-3.11-3.173-1.932 0-3.111 1.43-3.111 3.173 0 1.731 1.179 3.185 3.111 3.185zm0-1.166c-1.117 0-1.744-.94-1.744-2.019 0-1.066.627-2.006 1.744-2.006 1.128 0 1.743.94 1.743 2.006 0 1.079-.615 2.019-1.743 2.019zM203.198 438.259v-4.264c0-1.241-.652-1.944-1.956-1.944-.954 0-1.744.489-2.145.966v-.815h-1.317v6.057h1.317v-4.239c.314-.401.891-.802 1.555-.802.74 0 1.229.301 1.229 1.254v3.787h1.317z" fill="#333"/><path d="M286.456 434.53c0-5.937 4.813-10.75 10.749-10.75h16.124c5.937 0 10.749 4.813 10.749 10.75 0 5.936-4.812 10.749-10.749 10.749h-16.124c-5.936 0-10.749-4.813-10.749-10.749z" fill="#50A951"/><g filter="url(#filter1_d)"><path fill-rule="evenodd" clip-rule="evenodd" d="M313.329 443.487a8.958 8.958 0 100-17.917 8.958 8.958 0 000 17.917z" fill="#fff"/></g></g><path d="M60.72 456.924h277.691v.896H60.721v-.896zM60.72 411.239h277.691v.896H60.721v-.896z" fill="#000" fill-opacity=".05"/><path d="M110.555 393v-3.135h2.219c1.744 0 2.722-1.192 2.722-2.609 0-1.429-.966-2.621-2.722-2.621h-3.687V393h1.468zm2.019-4.427h-2.019v-2.646h2.019c.827 0 1.417.527 1.417 1.329 0 .79-.59 1.317-1.417 1.317zM119.255 393.151c1.931 0 3.11-1.455 3.11-3.186 0-1.743-1.179-3.173-3.11-3.173-1.932 0-3.111 1.43-3.111 3.173 0 1.731 1.179 3.186 3.111 3.186zm0-1.167c-1.117 0-1.744-.94-1.744-2.019 0-1.066.627-2.006 1.744-2.006 1.128 0 1.743.94 1.743 2.006 0 1.079-.615 2.019-1.743 2.019zM126.456 393.151c1.931 0 3.11-1.455 3.11-3.186 0-1.743-1.179-3.173-3.11-3.173-1.932 0-3.11 1.43-3.11 3.173 0 1.731 1.178 3.186 3.11 3.186zm0-1.167c-1.116 0-1.743-.94-1.743-2.019 0-1.066.627-2.006 1.743-2.006 1.128 0 1.743.94 1.743 2.006 0 1.079-.615 2.019-1.743 2.019zM132.227 393v-4.126c.264-.439 1.004-.815 1.568-.815.163 0 .288.012.401.038v-1.305c-.777 0-1.505.452-1.969 1.029v-.878h-1.316V393h1.316zM139.996 393v-3.135h2.22c1.743 0 2.721-1.192 2.721-2.609 0-1.429-.965-2.621-2.721-2.621h-3.687V393h1.467zm2.019-4.427h-2.019v-2.646h2.019c.828 0 1.417.527 1.417 1.329 0 .79-.589 1.317-1.417 1.317zM147.45 393v-4.126c.264-.439 1.003-.815 1.568-.815.163 0 .288.012.401.038v-1.305c-.777 0-1.505.452-1.969 1.029v-.878h-1.317V393h1.317zM151.146 386.203a.814.814 0 100-1.63.813.813 0 00-.815.815c0 .451.363.815.815.815zm.652 6.797v-6.057h-1.317V393h1.317zM156.516 393l2.47-6.057h-1.404l-1.768 4.54-1.769-4.54h-1.417l2.471 6.057h1.417zM164.842 393v-4.026c0-1.617-1.179-2.182-2.533-2.182-.966 0-1.844.301-2.546.979l.552.915c.514-.527 1.116-.778 1.793-.778.828 0 1.417.427 1.417 1.129v.903c-.451-.514-1.141-.777-1.969-.777-.99 0-2.094.576-2.094 1.981 0 1.329 1.116 2.007 2.094 2.007.803 0 1.518-.289 1.969-.816V393h1.317zm-2.759-.752c-.74 0-1.304-.427-1.304-1.091 0-.653.564-1.092 1.304-1.092.564 0 1.129.214 1.442.628v.928c-.313.413-.878.627-1.442.627zM169.308 393.151c1.191 0 1.894-.515 2.32-1.079l-.865-.815c-.339.476-.803.727-1.392.727-1.091 0-1.831-.84-1.831-2.019 0-1.179.74-2.006 1.831-2.006.589 0 1.053.225 1.392.702l.865-.79c-.426-.577-1.129-1.079-2.32-1.079-1.831 0-3.123 1.342-3.123 3.173s1.292 3.186 3.123 3.186zM172.544 395.37c.176.05.552.088.74.088.941-.012 1.655-.339 2.069-1.367l2.922-7.148h-1.404l-1.769 4.54-1.768-4.54h-1.417l2.496 6.132-.301.69c-.176.401-.452.527-.878.527a1.37 1.37 0 01-.502-.101l-.188 1.179zM183.84 393v-3.135h2.22c1.743 0 2.721-1.192 2.721-2.609 0-1.429-.965-2.621-2.721-2.621h-3.687V393h1.467zm2.019-4.427h-2.019v-2.646h2.019c.828 0 1.417.527 1.417 1.329 0 .79-.589 1.317-1.417 1.317zM191.294 393v-4.126c.263-.439 1.003-.815 1.568-.815.163 0 .288.012.401.038v-1.305c-.777 0-1.505.452-1.969 1.029v-.878h-1.317V393h1.317zM199.354 393v-4.026c0-1.617-1.179-2.182-2.533-2.182-.966 0-1.844.301-2.546.979l.552.915c.514-.527 1.116-.778 1.793-.778.828 0 1.417.427 1.417 1.129v.903c-.451-.514-1.141-.777-1.969-.777-.991 0-2.094.576-2.094 1.981 0 1.329 1.116 2.007 2.094 2.007.803 0 1.518-.289 1.969-.816V393h1.317zm-2.759-.752c-.74 0-1.304-.427-1.304-1.091 0-.653.564-1.092 1.304-1.092.564 0 1.129.214 1.442.628v.928c-.313.413-.878.627-1.442.627zM203.82 393.151c1.191 0 1.893-.515 2.32-1.079l-.865-.815c-.339.476-.803.727-1.393.727-1.091 0-1.83-.84-1.83-2.019 0-1.179.739-2.006 1.83-2.006.59 0 1.054.225 1.393.702l.865-.79c-.427-.577-1.129-1.079-2.32-1.079-1.831 0-3.123 1.342-3.123 3.173s1.292 3.186 3.123 3.186zM209.138 393.151c.602 0 .99-.176 1.229-.389l-.314-1.004c-.1.113-.326.226-.577.226-.376 0-.577-.313-.577-.727v-3.173h1.229v-1.141h-1.229v-1.656h-1.316v1.656h-1.004v1.141h1.004v3.499c0 1.016.526 1.568 1.555 1.568zM211.976 386.203a.813.813 0 00.815-.815.813.813 0 00-.815-.815.814.814 0 100 1.63zm.652 6.797v-6.057h-1.317V393h1.317zM217.095 393.151c1.192 0 1.894-.515 2.32-1.079l-.865-.815c-.338.476-.802.727-1.392.727-1.091 0-1.831-.84-1.831-2.019 0-1.179.74-2.006 1.831-2.006.59 0 1.054.225 1.392.702l.865-.79c-.426-.577-1.128-1.079-2.32-1.079-1.831 0-3.122 1.342-3.122 3.173s1.291 3.186 3.122 3.186zM223.392 393.151c.953 0 1.843-.314 2.458-.891l-.602-.865c-.439.439-1.129.677-1.731.677-1.141 0-1.819-.765-1.919-1.668h4.665v-.326c0-1.906-1.153-3.286-2.972-3.286-1.793 0-3.072 1.417-3.072 3.173 0 1.919 1.342 3.186 3.173 3.186zm1.605-3.687h-3.411c.05-.728.577-1.593 1.693-1.593 1.191 0 1.68.878 1.718 1.593zM229.645 393.151c1.63 0 2.521-.816 2.521-1.894 0-2.408-3.662-1.605-3.662-2.671 0-.427.426-.753 1.116-.753.765 0 1.429.326 1.793.728l.552-.928c-.539-.477-1.317-.841-2.345-.841-1.53 0-2.383.841-2.383 1.831 0 2.333 3.662 1.48 3.662 2.671 0 .477-.414.803-1.204.803-.777 0-1.618-.401-2.044-.84l-.602.94c.627.615 1.555.954 2.596.954z" fill="#333"/><path d="M60.72 365.555h277.691v.896H60.721v-.896z" fill="#000" fill-opacity=".05"/><path fill-rule="evenodd" clip-rule="evenodd" d="M317.165 383.721a.856.856 0 000 1.215l3.932 3.909-3.932 3.909a.856.856 0 000 1.215.87.87 0 001.222 0l4.544-4.516a.86.86 0 000-1.216l-4.544-4.516a.87.87 0 00-1.222 0z" fill="#AAA"/><path clip-rule="evenodd" d="M85.805 396.128a7.168 7.168 0 100-14.336 7.168 7.168 0 000 14.336z" stroke="#DE5833" stroke-width="1.716" stroke-linecap="round" stroke-linejoin="round"/><path d="M88.314 386.451l-5.018 5.018M88.314 391.469l-5.018-5.018" stroke="#DE5833" stroke-width="1.716" stroke-linecap="round"/><path d="M114.881 347v-1.292h-3.699c2.232-1.693 3.649-3.072 3.649-4.627 0-1.668-1.404-2.571-3.022-2.571-1.179 0-2.358.439-3.098 1.342l.853.953c.539-.602 1.279-.991 2.257-.991.765 0 1.53.389 1.53 1.267 0 1.216-1.279 2.295-4.527 4.753V347h6.057zM123.24 347v-7.073h2.533v-1.292h-6.533v1.292h2.533V347h1.467zM127.353 347v-4.126c.263-.439 1.003-.815 1.568-.815.163 0 .288.012.401.037v-1.304c-.778 0-1.505.452-1.969 1.029v-.878h-1.317V347h1.317zM135.413 347v-4.026c0-1.617-1.179-2.182-2.533-2.182-.966 0-1.844.301-2.546.978l.552.916c.514-.527 1.116-.778 1.793-.778.828 0 1.417.427 1.417 1.129v.903c-.451-.514-1.141-.778-1.969-.778-.991 0-2.094.577-2.094 1.982 0 1.329 1.116 2.006 2.094 2.006.803 0 1.518-.288 1.969-.815V347h1.317zm-2.759-.752c-.74 0-1.304-.427-1.304-1.092 0-.652.564-1.091 1.304-1.091.564 0 1.128.214 1.442.627v.928c-.314.414-.878.628-1.442.628zM139.879 347.15c1.191 0 1.893-.514 2.32-1.078l-.866-.815c-.338.476-.802.727-1.392.727-1.091 0-1.831-.84-1.831-2.019 0-1.179.74-2.006 1.831-2.006.59 0 1.054.225 1.392.702l.866-.79c-.427-.577-1.129-1.079-2.32-1.079-1.831 0-3.123 1.342-3.123 3.173s1.292 3.185 3.123 3.185zM149.034 347l-2.558-3.311 2.508-2.746h-1.63l-2.672 2.922v-5.23h-1.316V347h1.316v-1.63l.853-.878 1.844 2.508h1.655zM152.727 347.15c.953 0 1.843-.313 2.458-.89l-.602-.865c-.439.439-1.129.677-1.731.677-1.141 0-1.818-.765-1.918-1.668h4.665v-.326c0-1.906-1.154-3.286-2.972-3.286-1.794 0-3.073 1.417-3.073 3.173 0 1.919 1.342 3.185 3.173 3.185zm1.605-3.687h-3.411c.05-.727.577-1.592 1.693-1.592 1.191 0 1.68.878 1.718 1.592zM158.215 347v-4.126c.264-.439 1.003-.815 1.568-.815.163 0 .288.012.401.037v-1.304c-.777 0-1.505.452-1.969 1.029v-.878h-1.317V347h1.317zM163.328 347.15c1.63 0 2.521-.815 2.521-1.893 0-2.408-3.662-1.605-3.662-2.671 0-.427.426-.753 1.116-.753.765 0 1.429.326 1.793.728l.552-.929c-.539-.476-1.317-.84-2.345-.84-1.53 0-2.383.84-2.383 1.831 0 2.333 3.662 1.48 3.662 2.671 0 .477-.414.803-1.204.803-.777 0-1.618-.401-2.044-.84l-.602.94c.627.615 1.555.953 2.596.953zM174.658 347c1.581 0 2.433-.966 2.433-2.27 0-1.016-.714-1.906-1.617-2.044.777-.163 1.454-.878 1.454-1.919 0-1.179-.84-2.132-2.382-2.132h-4.114V347h4.226zm-.401-4.916h-2.358v-2.157h2.358c.74 0 1.166.464 1.166 1.078 0 .64-.426 1.079-1.166 1.079zm.063 3.624h-2.421v-2.332h2.421c.828 0 1.266.539 1.266 1.166 0 .727-.476 1.166-1.266 1.166zM179.856 347v-8.365h-1.317V347h1.317zM184.31 347.15c1.931 0 3.11-1.454 3.11-3.185 0-1.743-1.179-3.173-3.11-3.173-1.931 0-3.11 1.43-3.11 3.173 0 1.731 1.179 3.185 3.11 3.185zm0-1.166c-1.116 0-1.743-.94-1.743-2.019 0-1.066.627-2.006 1.743-2.006 1.129 0 1.743.94 1.743 2.006 0 1.079-.614 2.019-1.743 2.019zM191.524 347.15c1.191 0 1.894-.514 2.32-1.078l-.865-.815c-.339.476-.803.727-1.392.727-1.091 0-1.831-.84-1.831-2.019 0-1.179.74-2.006 1.831-2.006.589 0 1.053.225 1.392.702l.865-.79c-.426-.577-1.129-1.079-2.32-1.079-1.831 0-3.123 1.342-3.123 3.173s1.292 3.185 3.123 3.185zM200.679 347l-2.558-3.311 2.508-2.746h-1.63l-2.671 2.922v-5.23h-1.317V347h1.317v-1.63l.852-.878 1.844 2.508h1.655zM204.372 347.15c.953 0 1.844-.313 2.458-.89l-.602-.865c-.439.439-1.129.677-1.731.677-1.141 0-1.818-.765-1.918-1.668h4.665v-.326c0-1.906-1.154-3.286-2.972-3.286-1.794 0-3.073 1.417-3.073 3.173 0 1.919 1.342 3.185 3.173 3.185zm1.605-3.687h-3.411c.05-.727.577-1.592 1.693-1.592 1.192 0 1.681.878 1.718 1.592zM214.124 347v-8.365h-1.316v3.148a2.363 2.363 0 00-1.944-.991c-1.555 0-2.684 1.217-2.684 3.173 0 2.007 1.141 3.185 2.684 3.185.79 0 1.48-.376 1.944-.978V347h1.316zm-2.872-1.016c-1.053 0-1.718-.84-1.718-2.019 0-1.166.665-2.006 1.718-2.006.615 0 1.267.363 1.556.815v2.395c-.289.451-.941.815-1.556.815z" fill="#333"/><path fill-rule="evenodd" clip-rule="evenodd" d="M89.033 340.691c.312.3.322.796.022 1.108l-3.442 3.583a.783.783 0 01-1.13 0l-1.933-2.012a.783.783 0 111.13-1.086l1.368 1.424 2.877-2.995a.784.784 0 011.108-.022z" fill="#3EA140"/><path fill-rule="evenodd" clip-rule="evenodd" d="M85.803 349.452a6.494 6.494 0 100-12.988 6.494 6.494 0 100 12.988zm8.062-6.494a8.062 8.062 0 01-8.062 8.062 8.062 8.062 0 110-16.124 8.062 8.062 0 018.062 8.062z" fill="#3EA140"/><path d="M60.72 319.871h277.691v.895H60.721v-.895z" fill="#000" fill-opacity=".05"/><g clip-path="url(#clip2)"><path d="M113.923 301.206v-1.292h-4.264v-2.333h4.176v-1.291h-4.176v-2.157h4.264v-1.292h-5.731v8.365h5.731zM120.809 301.206v-4.264c0-1.242-.652-1.944-1.956-1.944-.953 0-1.743.489-2.144.966v-.816h-1.317v6.058h1.317v-4.239c.313-.401.89-.803 1.555-.803.74 0 1.229.301 1.229 1.254v3.788h1.316zM125.279 301.356c1.191 0 1.893-.514 2.32-1.078l-.866-.816c-.338.477-.802.728-1.392.728-1.091 0-1.831-.84-1.831-2.019 0-1.179.74-2.007 1.831-2.007.59 0 1.054.226 1.392.703l.866-.791c-.427-.576-1.129-1.078-2.32-1.078-1.831 0-3.123 1.342-3.123 3.173s1.292 3.185 3.123 3.185zM130.082 301.206v-4.126c.264-.439 1.004-.815 1.568-.815.163 0 .288.012.401.037v-1.304c-.777 0-1.505.451-1.969 1.028v-.878h-1.317v6.058h1.317zM132.862 303.576c.176.05.552.088.74.088.941-.013 1.656-.339 2.069-1.367l2.922-7.149h-1.404l-1.768 4.54-1.769-4.54h-1.417l2.496 6.133-.301.69c-.176.401-.452.526-.878.526-.15 0-.364-.037-.502-.1l-.188 1.179zM142.681 301.356c1.567 0 2.684-1.191 2.684-3.185s-1.117-3.173-2.684-3.173c-.79 0-1.492.376-1.944.978v-.828h-1.317v8.365h1.317v-3.148c.502.64 1.179.991 1.944.991zm-.389-1.166c-.614 0-1.267-.376-1.555-.828v-2.395c.301-.452.941-.803 1.555-.803 1.041 0 1.718.828 1.718 2.007 0 1.179-.677 2.019-1.718 2.019zM148.514 301.356c.602 0 .99-.175 1.229-.389l-.314-1.003c-.1.113-.326.226-.577.226-.376 0-.577-.314-.577-.728v-3.172h1.229v-1.142h-1.229v-1.655h-1.316v1.655h-1.004v1.142h1.004v3.499c0 1.015.526 1.567 1.555 1.567zM153.497 301.356c.953 0 1.843-.313 2.458-.89l-.602-.866c-.439.439-1.129.678-1.731.678-1.141 0-1.818-.765-1.919-1.668h4.665v-.326c0-1.907-1.153-3.286-2.972-3.286-1.793 0-3.072 1.417-3.072 3.173 0 1.919 1.342 3.185 3.173 3.185zm1.605-3.687h-3.411c.05-.727.577-1.593 1.693-1.593 1.191 0 1.68.878 1.718 1.593zM163.249 301.206v-8.365h-1.317v3.148a2.363 2.363 0 00-1.944-.991c-1.555 0-2.684 1.216-2.684 3.173 0 2.006 1.142 3.185 2.684 3.185.79 0 1.48-.376 1.944-.978v.828h1.317zm-2.872-1.016c-1.053 0-1.718-.84-1.718-2.019 0-1.167.665-2.007 1.718-2.007.614 0 1.267.364 1.555.815v2.396c-.288.451-.941.815-1.555.815zM172.251 301.356c1.681 0 2.722-.89 3.361-1.894l-1.254-.627c-.401.69-1.216 1.217-2.107 1.217-1.655 0-2.884-1.279-2.884-3.022 0-1.769 1.229-3.023 2.884-3.023a2.47 2.47 0 012.107 1.217l1.242-.652c-.615-1.004-1.668-1.869-3.349-1.869-2.47 0-4.389 1.743-4.389 4.327 0 2.57 1.919 4.326 4.389 4.326zM179.483 301.356c1.931 0 3.11-1.455 3.11-3.185 0-1.743-1.179-3.173-3.11-3.173-1.931 0-3.11 1.43-3.11 3.173 0 1.73 1.179 3.185 3.11 3.185zm0-1.166c-1.116 0-1.743-.941-1.743-2.019 0-1.066.627-2.007 1.743-2.007 1.129 0 1.743.941 1.743 2.007 0 1.078-.614 2.019-1.743 2.019zM189.355 301.206v-4.264c0-1.242-.652-1.944-1.956-1.944-.953 0-1.743.489-2.144.966v-.816h-1.317v6.058h1.317v-4.239c.313-.401.89-.803 1.555-.803.74 0 1.229.301 1.229 1.254v3.788h1.316zM196.483 301.206v-4.264c0-1.242-.652-1.944-1.956-1.944-.953 0-1.743.489-2.145.966v-.816h-1.317v6.058h1.317v-4.239c.314-.401.891-.803 1.555-.803.74 0 1.229.301 1.229 1.254v3.788h1.317zM201.002 301.356c.953 0 1.844-.313 2.458-.89l-.602-.866c-.439.439-1.128.678-1.73.678-1.141 0-1.819-.765-1.919-1.668h4.665v-.326c0-1.907-1.154-3.286-2.972-3.286-1.793 0-3.073 1.417-3.073 3.173 0 1.919 1.342 3.185 3.173 3.185zm1.606-3.687h-3.412c.051-.727.577-1.593 1.693-1.593 1.192 0 1.681.878 1.719 1.593zM207.933 301.356c1.191 0 1.894-.514 2.32-1.078l-.865-.816c-.339.477-.803.728-1.392.728-1.091 0-1.831-.84-1.831-2.019 0-1.179.74-2.007 1.831-2.007.589 0 1.053.226 1.392.703l.865-.791c-.426-.576-1.129-1.078-2.32-1.078-1.831 0-3.123 1.342-3.123 3.173s1.292 3.185 3.123 3.185zM213.251 301.356c.602 0 .991-.175 1.229-.389l-.314-1.003c-.1.113-.326.226-.577.226-.376 0-.576-.314-.576-.728v-3.172h1.229v-1.142h-1.229v-1.655h-1.317v1.655h-1.004v1.142h1.004v3.499c0 1.015.526 1.567 1.555 1.567zM216.089 294.409a.813.813 0 00.815-.816.814.814 0 10-1.63 0c0 .452.364.816.815.816zm.652 6.797v-6.058h-1.316v6.058h1.316zM221.196 301.356c1.931 0 3.11-1.455 3.11-3.185 0-1.743-1.179-3.173-3.11-3.173-1.931 0-3.11 1.43-3.11 3.173 0 1.73 1.179 3.185 3.11 3.185zm0-1.166c-1.116 0-1.743-.941-1.743-2.019 0-1.066.627-2.007 1.743-2.007 1.129 0 1.743.941 1.743 2.007 0 1.078-.614 2.019-1.743 2.019zM231.068 301.206v-4.264c0-1.242-.652-1.944-1.956-1.944-.953 0-1.743.489-2.144.966v-.816h-1.317v6.058h1.317v-4.239c.313-.401.89-.803 1.555-.803.739 0 1.229.301 1.229 1.254v3.788h1.316z" fill="#333"/><path fill-rule="evenodd" clip-rule="evenodd" d="M89.033 295.209c.312.3.322.796.022 1.109l-3.442 3.583a.783.783 0 01-1.13 0l-1.933-2.013a.783.783 0 111.13-1.086l1.368 1.424 2.877-2.994a.785.785 0 011.108-.023z" fill="#3EA140"/><path fill-rule="evenodd" clip-rule="evenodd" d="M85.803 303.971a6.495 6.495 0 100-12.989 6.495 6.495 0 000 12.989zm8.062-6.494a8.062 8.062 0 11-16.125 0 8.062 8.062 0 0116.125 0z" fill="#3EA140"/></g><path fill-rule="evenodd" clip-rule="evenodd" d="M317.165 334.453a.856.856 0 000 1.215l3.932 3.909-3.932 3.909a.856.856 0 000 1.215.87.87 0 001.222 0l4.544-4.516a.86.86 0 000-1.216l-4.544-4.516a.87.87 0 00-1.222 0z" fill="#AAA"/></g><g filter="url(#filter2_d)"><path d="M38.913 68h321.174v188.343H38.913V68z" fill="#C4C4C4"/></g><g filter="url(#filter3_d)"><rect x="29" y="57.096" width="341" height="201.3" rx="5.5" fill="#fff"/><path d="M103.788 243.267a4.76 4.76 0 003.617-1.61v-3.287h-4.171v1.36h2.64v1.359c-.396.383-1.188.792-2.086.792-1.742 0-3.036-1.346-3.036-3.181 0-1.861 1.294-3.181 3.036-3.181.977 0 1.808.515 2.284 1.175l1.254-.726c-.7-1.004-1.822-1.822-3.538-1.822-2.561 0-4.62 1.782-4.62 4.554 0 2.759 2.059 4.567 4.62 4.567zM117.212 243.096l-2.165-3.459c1.069-.171 2.099-1.029 2.099-2.587 0-1.637-1.149-2.759-2.891-2.759h-3.868v8.805h1.545v-3.287h1.544l1.941 3.287h1.795zm-3.155-4.647h-2.125v-2.798h2.125c.871 0 1.505.541 1.505 1.386 0 .858-.634 1.412-1.505 1.412zM127.997 243.096l-3.458-8.805h-1.927l-3.459 8.805h1.756l.647-1.703h4.039l.647 1.703h1.755zm-2.838-3.063h-3.168l1.584-4.197 1.584 4.197zM133.607 243.096c2.746 0 4.594-1.809 4.594-4.409 0-2.574-1.848-4.396-4.607-4.396h-3.273v8.805h3.286zm-.013-1.36h-1.729v-6.085h1.742c1.954 0 3.01 1.346 3.01 3.036 0 1.676-1.109 3.049-3.023 3.049zM147.1 243.096v-1.36h-4.488v-2.455h4.395v-1.36h-4.395v-2.27h4.488v-1.36h-6.033v8.805h6.033zM160.871 243.096v-1.36h-4.488v-2.455h4.396v-1.36h-4.396v-2.27h4.488v-1.36h-6.032v8.805h6.032zM171.462 243.096v-8.805h-1.545v6.099l-4.501-6.099h-1.584v8.805h1.544v-6.297l4.594 6.297h1.492zM182.377 243.096v-8.805h-1.545v3.591h-4.58v-3.591h-1.545v8.805h1.545v-3.855h4.58v3.855h1.545zM193.555 243.096l-3.459-8.805h-1.927l-3.458 8.805h1.755l.647-1.703h4.039l.647 1.703h1.756zm-2.838-3.063h-3.168l1.584-4.197 1.584 4.197zM203.508 243.096v-8.805h-1.545v6.099l-4.501-6.099h-1.584v8.805h1.545v-6.297l4.593 6.297h1.492zM210.991 243.254c1.768 0 2.864-.937 3.537-1.993l-1.32-.66c-.422.726-1.28 1.28-2.217 1.28-1.743 0-3.036-1.346-3.036-3.181 0-1.861 1.293-3.181 3.036-3.181.937 0 1.795.541 2.217 1.28l1.307-.686c-.647-1.056-1.756-1.967-3.524-1.967-2.601 0-4.62 1.835-4.62 4.554 0 2.706 2.019 4.554 4.62 4.554zM223.159 243.096v-1.36h-4.488v-2.455h4.395v-1.36h-4.395v-2.27h4.488v-1.36h-6.033v8.805h6.033zM229.406 243.096c2.746 0 4.594-1.809 4.594-4.409 0-2.574-1.848-4.396-4.607-4.396h-3.273v8.805h3.286zm-.013-1.36h-1.729v-6.085h1.742c1.954 0 3.01 1.346 3.01 3.036 0 1.676-1.109 3.049-3.023 3.049zM243.189 243.096v-3.815h4.395v-1.36h-4.395v-2.27h4.488v-1.36h-6.033v8.805h1.545zM257.281 243.096l-2.164-3.459c1.069-.171 2.098-1.029 2.098-2.587 0-1.637-1.148-2.759-2.89-2.759h-3.868v8.805h1.544v-3.287h1.545l1.94 3.287h1.795zm-3.154-4.647h-2.126v-2.798h2.126c.871 0 1.504.541 1.504 1.386 0 .858-.633 1.412-1.504 1.412zM264.252 243.254c2.627 0 4.501-1.927 4.501-4.554 0-2.627-1.874-4.554-4.501-4.554-2.64 0-4.501 1.927-4.501 4.554 0 2.627 1.861 4.554 4.501 4.554zm0-1.373c-1.782 0-2.917-1.373-2.917-3.181 0-1.822 1.135-3.181 2.917-3.181 1.769 0 2.917 1.359 2.917 3.181 0 1.808-1.148 3.181-2.917 3.181zM280.75 243.096v-8.805h-2.178l-2.39 6.046-2.402-6.046h-2.178v8.805h1.544v-6.798l2.706 6.798h.66l2.693-6.798v6.798h1.545z" fill="#888"/><path fill-rule="evenodd" clip-rule="evenodd" d="M287.708 238.5a7.793 7.793 0 1115.585.001 7.793 7.793 0 01-15.585-.001zm9.655 1.013a1.69 1.69 0 01-1.509 1.023 1.95 1.95 0 01-1.948-2.036 1.943 1.943 0 011.948-2.036 1.688 1.688 0 011.523 1.023l1.562-.758a3.252 3.252 0 00-3.085-1.866c-2.146 0-3.807 1.477-3.807 3.637s1.647 3.637 3.807 3.637a3.292 3.292 0 003.071-1.887l-1.562-.737z" fill="url(#paint0_radial)"/><path d="M137.819 214.095c1.96 0 3.148-.871 3.782-1.743l-1.643-1.544a2.384 2.384 0 01-2.02 1.049c-1.525 0-2.594-1.128-2.594-2.791 0-1.664 1.069-2.772 2.594-2.772.871 0 1.564.356 2.02 1.029l1.643-1.544c-.634-.871-1.822-1.723-3.782-1.723-2.93 0-5.069 2.079-5.069 5.01 0 2.95 2.139 5.029 5.069 5.029zM145.76 213.857v-6.316c.415-.614 1.524-1.089 2.356-1.089.297 0 .515.02.693.059v-2.455c-1.188 0-2.356.693-3.049 1.525v-1.287h-2.515v9.563h2.515zM154.875 214.095c1.485 0 2.989-.456 3.94-1.327l-1.129-1.663c-.614.594-1.722.931-2.534.931-1.624 0-2.574-.971-2.752-2.139h7.108v-.594c0-3.108-1.921-5.247-4.792-5.247-2.891 0-4.95 2.238-4.95 5.01 0 3.069 2.198 5.029 5.109 5.029zm2.217-5.94h-4.712c.099-.951.772-2.04 2.336-2.04 1.663 0 2.297 1.129 2.376 2.04zM165.819 214.095c1.485 0 2.989-.456 3.94-1.327l-1.129-1.663c-.614.594-1.722.931-2.534.931-1.624 0-2.574-.971-2.752-2.139h7.108v-.594c0-3.108-1.921-5.247-4.792-5.247-2.891 0-4.95 2.238-4.95 5.01 0 3.069 2.198 5.029 5.109 5.029zm2.217-5.94h-4.712c.099-.951.772-2.04 2.336-2.04 1.663 0 2.297 1.129 2.376 2.04zM177.733 214.095c2.455 0 4.237-1.842 4.237-5.029 0-3.188-1.782-5.01-4.237-5.01-1.168 0-2.218.515-2.95 1.446v-1.208h-2.515V217.5h2.515v-4.87c.792.99 1.821 1.465 2.95 1.465zm-.792-2.238c-.812 0-1.742-.495-2.158-1.108v-3.366c.435-.634 1.346-1.089 2.158-1.089 1.445 0 2.435 1.128 2.435 2.772 0 1.663-.99 2.791-2.435 2.791zM183.495 217.58c.297.099.95.158 1.228.158 1.643-.04 2.91-.515 3.623-2.317l4.495-11.127h-2.693l-2.515 6.653-2.495-6.653h-2.692l3.88 9.682-.356.832c-.238.514-.673.693-1.327.693-.237 0-.574-.06-.792-.159l-.356 2.238zM197.408 214.095c2.654 0 4.158-1.287 4.158-3.049 0-3.861-5.682-2.673-5.682-4.079 0-.535.594-.931 1.505-.931 1.168 0 2.257.515 2.831 1.109l1.01-1.782c-.951-.752-2.238-1.307-3.841-1.307-2.535 0-3.921 1.406-3.921 3.01 0 3.762 5.663 2.475 5.663 4.039 0 .594-.515 1.01-1.604 1.01-1.188 0-2.594-.654-3.306-1.327l-1.089 1.822c1.009.93 2.613 1.485 4.276 1.485zM204.646 203.264c.832 0 1.505-.673 1.505-1.505 0-.831-.673-1.485-1.505-1.485-.811 0-1.485.654-1.485 1.485a1.5 1.5 0 001.485 1.505zm1.268 10.593v-9.563h-2.515v9.563h2.515zM211.615 214.095c1.049 0 1.722-.277 2.098-.614l-.534-1.921c-.139.159-.495.297-.871.297-.555 0-.872-.455-.872-1.069v-4.296h1.941v-2.198h-1.941v-2.614h-2.514v2.614h-1.584v2.198h1.584v4.969c0 1.723.93 2.634 2.693 2.634zM219.592 214.095c1.485 0 2.99-.456 3.94-1.327l-1.129-1.663c-.613.594-1.722.931-2.534.931-1.624 0-2.574-.971-2.752-2.139h7.108v-.594c0-3.108-1.921-5.247-4.792-5.247-2.89 0-4.95 2.238-4.95 5.01 0 3.069 2.198 5.029 5.109 5.029zm2.217-5.94h-4.712c.099-.951.772-2.04 2.336-2.04 1.664 0 2.297 1.129 2.376 2.04zM227.251 214.075c.871 0 1.604-.733 1.604-1.604 0-.871-.733-1.604-1.604-1.604-.871 0-1.604.733-1.604 1.604 0 .871.733 1.604 1.604 1.604zM235.427 214.095c1.96 0 3.148-.871 3.782-1.743l-1.644-1.544a2.381 2.381 0 01-2.019 1.049c-1.525 0-2.594-1.128-2.594-2.791 0-1.664 1.069-2.772 2.594-2.772.871 0 1.564.356 2.019 1.029l1.644-1.544c-.634-.871-1.822-1.723-3.782-1.723-2.93 0-5.069 2.079-5.069 5.01 0 2.95 2.139 5.029 5.069 5.029zM245.288 214.095c3.168 0 5.069-2.317 5.069-5.029 0-2.713-1.901-5.01-5.069-5.01-3.148 0-5.049 2.297-5.049 5.01 0 2.712 1.901 5.029 5.049 5.029zm0-2.238c-1.564 0-2.435-1.287-2.435-2.791 0-1.485.871-2.772 2.435-2.772 1.584 0 2.455 1.287 2.455 2.772 0 1.504-.871 2.791-2.455 2.791zM266.636 213.857v-6.91c0-1.96-1.049-2.891-2.811-2.891-1.466 0-2.733.871-3.287 1.723-.337-1.069-1.248-1.723-2.653-1.723-1.466 0-2.713.911-3.129 1.465v-1.227h-2.514v9.563h2.514v-6.455c.376-.514 1.109-1.108 1.98-1.108 1.03 0 1.426.633 1.426 1.524v6.039h2.534v-6.455c.357-.514 1.089-1.108 1.98-1.108 1.03 0 1.426.633 1.426 1.524v6.039h2.534z" fill="#333"/><path d="M199.306 183.581c30.538 0 55.293-24.929 55.293-55.68s-24.755-55.68-55.293-55.68-55.293 24.929-55.293 55.68 24.755 55.68 55.293 55.68z" fill="#999" fill-opacity=".25"/><path d="M199.306 72.221a54.801 54.801 0 00-21.489 4.362h.828c24.512-.004 46.468 15.27 55.141 38.357 8.672 23.087 2.251 49.169-16.127 65.503 25.433-8.997 40.718-35.152 36.18-61.91-4.538-26.76-27.575-46.323-54.533-46.312z" fill="#333" fill-opacity=".15"/><path d="M254.5 128.914c.02-14.117-5.477-27.671-15.297-37.718h-91.259c-1.902 0-3.444 1.557-3.444 3.478v62.472c0 3.065 2.461 5.55 5.496 5.55h92.68c7.668-9.555 11.843-21.484 11.824-33.782z" fill="#fff"/><path d="M238.77 88.907h-94.875a3.471 3.471 0 00-2.468 1.028 3.52 3.52 0 00-1.021 2.485v5.005h105.178a55.535 55.535 0 00-6.814-8.518z" fill="#777"/><path d="M205.15 140.374h-19.043a1.158 1.158 0 01-1.144-1.152v-11.63a1.164 1.164 0 011.144-1.152h19.058a1.16 1.16 0 011.144 1.152v11.63c.014.312-.105.616-.326.835-.221.22-.524.335-.833.317z" fill="#999" fill-opacity=".25"/><path d="M230.235 140.374h-19.063a1.162 1.162 0 01-1.144-1.152v-11.63a1.164 1.164 0 011.144-1.152h19.063c.628.009 1.135.52 1.144 1.152v11.63c.004.307-.115.603-.331.82a1.12 1.12 0 01-.813.332z" fill="#DEE2EA"/><path d="M216.944 147.792h-30.209a1.779 1.779 0 01-1.267-.528 1.799 1.799 0 01-.52-1.278 1.799 1.799 0 01.52-1.278 1.774 1.774 0 011.267-.527h30.209c.476-.002.932.188 1.269.527.336.339.525.799.524 1.278a1.857 1.857 0 01-1.793 1.806z" fill="#999" fill-opacity=".25"/><path d="M234.362 147.792h-11.396a1.78 1.78 0 01-1.268-.528 1.803 1.803 0 01-.52-1.278 1.803 1.803 0 01.52-1.278 1.774 1.774 0 011.268-.527h11.396c.476-.002.932.188 1.269.527.336.339.525.799.524 1.278.001.479-.188.939-.524 1.278a1.783 1.783 0 01-1.269.528z" fill="#DEE2EA"/><path d="M198.131 155.034h-11.396a1.779 1.779 0 01-1.267-.528 1.799 1.799 0 01-.52-1.278 1.798 1.798 0 01.52-1.277 1.779 1.779 0 011.267-.528h11.396a1.78 1.78 0 011.269.527c.337.339.525.799.524 1.278.001.48-.187.94-.524 1.279a1.785 1.785 0 01-1.269.527zM220.78 155.034h-11.401a1.78 1.78 0 01-1.268-.528 1.803 1.803 0 01-.52-1.278 1.803 1.803 0 01.52-1.277 1.78 1.78 0 011.268-.528h11.401c.475-.001.932.189 1.267.528.336.339.523.799.521 1.277a1.852 1.852 0 01-1.788 1.806zM203.755 155.008a1.8 1.8 0 001.793-1.805 1.8 1.8 0 00-1.793-1.806 1.8 1.8 0 00-1.793 1.806 1.8 1.8 0 001.793 1.805z" fill="#999" fill-opacity=".25"/><path d="M231.874 155.008a1.8 1.8 0 001.793-1.805 1.8 1.8 0 00-1.793-1.806 1.8 1.8 0 00-1.793 1.806 1.8 1.8 0 001.793 1.805zM226.7 155.008a1.8 1.8 0 001.793-1.805 1.8 1.8 0 00-1.793-1.806 1.8 1.8 0 00-1.793 1.806 1.8 1.8 0 001.793 1.805zM237.85 155.034h9.762a53.955 53.955 0 001.823-3.601H237.85a1.8 1.8 0 00-1.657 1.801 1.8 1.8 0 001.657 1.8zM236.206 140.374h16.999a56.093 56.093 0 001.394-12.473v-1.461h-18.388a1.164 1.164 0 00-1.144 1.152v11.63a1.157 1.157 0 001.139 1.152z" fill="#DEE2EA"/><path d="M254.354 122.629a55.555 55.555 0 00-4.684-17.756h-62.316c-.633 0-1.24.253-1.687.703a2.41 2.41 0 00-.699 1.699v13.003c0 .637.251 1.248.699 1.699.447.45 1.054.703 1.687.703h66.689c.104-.01.209-.027.311-.051z" fill="#999" fill-opacity=".25"/><path d="M147.282 94.822c.908 0 1.645-.741 1.645-1.656 0-.915-.737-1.656-1.645-1.656a1.65 1.65 0 00-1.645 1.656 1.65 1.65 0 001.645 1.656zM153.008 94.822c.908 0 1.645-.741 1.645-1.656 0-.915-.737-1.656-1.645-1.656a1.65 1.65 0 00-1.645 1.656 1.65 1.65 0 001.645 1.656zM158.729 94.822a1.65 1.65 0 001.644-1.656 1.65 1.65 0 00-1.644-1.656 1.65 1.65 0 00-1.645 1.656 1.65 1.65 0 001.645 1.656z" fill="#AAA"/><path d="M178.18 162.873H146c-3.082-.014-5.577-2.525-5.594-5.627V97.322h37.799l-.025 65.551z" fill="#3FA140"/><path opacity=".59" d="M167.177 136.815H149.56a1.538 1.538 0 01-1.532-1.543c0-.852.686-1.543 1.532-1.543h17.617c.847 0 1.533.691 1.533 1.543s-.686 1.543-1.533 1.543zM167.177 144.232H149.56a1.538 1.538 0 01-1.532-1.543c0-.852.686-1.543 1.532-1.543h17.617c.847 0 1.533.691 1.533 1.543s-.686 1.543-1.533 1.543zM162.698 151.701H149.56a1.538 1.538 0 01-1.532-1.543c0-.853.686-1.543 1.532-1.543h13.138c.846 0 1.532.69 1.532 1.543 0 .852-.686 1.543-1.532 1.543zM167.177 151.701a1.538 1.538 0 01-1.532-1.543c0-.853.686-1.543 1.532-1.543s1.533.69 1.533 1.543c0 .852-.687 1.543-1.533 1.543zM159.347 129.326c7.174 0 12.989-5.856 12.989-13.08 0-7.225-5.815-13.081-12.989-13.081s-12.99 5.856-12.99 13.081c0 7.224 5.816 13.08 12.99 13.08z" fill="#fff"/><path d="M167.499 126.368a3.982 3.982 0 00-.638-1.502c-.649-.9-2.141-.9-3.336-.951a3.73 3.73 0 01-1.44-.149c-.751-.304-.899-1.302-.95-1.806-.399-1.25-.945-1.651-1.533-1.502l-.296.299-.301-.299c-.598-.103-.843 0-1.242 1.502-.051.514-.25 1.502-.945 1.806a3.756 3.756 0 01-1.445.149c-1.195 0-2.738.051-3.336.951-.369.46-.6 1.017-.664 1.605a12.97 12.97 0 008.173 2.906 12.526 12.526 0 007.953-3.009z" fill="#9B7A56"/><path d="M164.072 115.397c0 3.359-2.09 7.468-4.725 7.468-2.636 0-4.73-4.161-4.73-7.468 0-3.308 2.089-6.065 4.73-6.065 2.641 0 4.725 2.706 4.725 6.065z" fill="#9B7A56"/><path d="M154.52 110.284h9.056v3.508h-9.056v-3.508z" fill="#AF58C4"/><path d="M159.393 110.284h4.576v3.508h-4.576v-3.508z" fill="#CE6CE5"/><path fill-rule="evenodd" clip-rule="evenodd" d="M167.002 110.418c.248.507.269 1.096.058 1.62a1.944 1.944 0 01-.588 3.107c.894 1.152.496 2.654-.797 3.055a1.982 1.982 0 01-1.946 1.78 1.915 1.915 0 01-1.343 1.029h-.097a8.135 8.135 0 001.532-4.913 13.017 13.017 0 00-.102-1.45.995.995 0 01-.598-.401.975.975 0 01-1.512-.304.98.98 0 01-1.532-.098.953.953 0 01-1.594 0 .952.952 0 01-1.532.098.96.96 0 01-1.491.304c-.146.18-.348.305-.573.355-.061.481-.095.965-.102 1.45a8.122 8.122 0 001.696 4.912h-.174a2.1 2.1 0 01-1.389-1.028 2.049 2.049 0 01-1.941-1.754c-1.394-.448-1.548-2.027-.797-3.056a1.947 1.947 0 01-.648-3.086 1.963 1.963 0 01.043-1.624c.248-.51.704-.886 1.249-1.03a1.754 1.754 0 01.386-1.578 1.728 1.728 0 011.509-.577c.265-.516.73-.9 1.284-1.061a2.088 2.088 0 011.648.207 2.194 2.194 0 013.335 0 2.03 2.03 0 011.629-.211 2.042 2.042 0 011.257 1.065 1.738 1.738 0 011.5.584c.376.429.521 1.015.39 1.571.541.151.992.527 1.24 1.034zm-11.292 2.572c1.895-3.359 5.276-3.308 7.151 0a6.726 6.726 0 00-7.151 0z" fill="#323335"/><path d="M164.174 115.798a5.417 5.417 0 01-.399 2.572c1.242-.772 1.441-2.773.399-2.572z" fill="#7B5D3F"/><path d="M154.438 115.798a5.354 5.354 0 00.398 2.572c-1.266-.772-1.466-2.773-.398-2.572z" fill="#8C6E48"/><path d="M157.952 119.255v.288c.006.313.135.611.359.828.224.218.525.336.837.329h.51a1.173 1.173 0 001.18-1.157v-.299l-2.886.011z" fill="#fff"/><path d="M157.804 116.95c.248 0 .45-.246.45-.55 0-.304-.202-.551-.45-.551s-.449.247-.449.551c0 .304.201.55.449.55zM160.69 116.95c.248 0 .45-.246.45-.55 0-.304-.202-.551-.45-.551s-.449.247-.449.551c0 .304.201.55.449.55z" fill="#323335"/><path d="M166.861 124.82c-.649-.905-2.141-.905-3.336-.957a3.694 3.694 0 01-1.44-.149c-.051 0-.051-.051-.103-.051a3.568 3.568 0 01-2.589 1.404 3.396 3.396 0 01-2.554-1.404.047.047 0 00-.035.015.047.047 0 00-.011.036 3.744 3.744 0 01-1.446.149c-1.195 0-2.738.052-3.335.957a3.609 3.609 0 00-.664 1.749 12.956 12.956 0 008.172 2.808 12.783 12.783 0 008.102-3.086 8.263 8.263 0 00-.761-1.471z" fill="#CE6CE5"/><path d="M161.16 122.197a3.096 3.096 0 01-1.767.668 2.893 2.893 0 01-1.737-.586c-.04.321-.129.633-.266.926a2.805 2.805 0 002.003.761 3.054 3.054 0 002.043-.849 3.28 3.28 0 01-.276-.92z" fill="#7B5D3F"/><path d="M233.289 158.38c20.883 0 37.812-17.047 37.812-38.076s-16.929-38.076-37.812-38.076c-20.882 0-37.811 17.047-37.811 38.076s16.929 38.076 37.811 38.076z" fill="#4C863E"/><path d="M234.878 155.749c21.219 0 38.421-17.323 38.421-38.691 0-21.368-17.202-38.69-38.421-38.69-21.22 0-38.422 17.322-38.422 38.69s17.202 38.691 38.422 38.691z" fill="#3FA140"/><path fill-rule="evenodd" clip-rule="evenodd" d="M227.706 131.36H212.98v-27.204h14.279c5.166 0 7.81 3.304 7.81 6.934 0 3.385-2.115 5.71-4.678 6.24 2.929.448 5.207 3.263 5.207 6.648 0 4.119-2.685 7.382-7.892 7.382zm-1.708-16.396c1.952 0 3.173-1.101 3.173-2.855 0-1.672-1.221-2.855-3.173-2.855h-7.241v5.71h7.241zm.244 11.298c2.156 0 3.457-1.142 3.457-3.1 0-1.713-1.22-3.1-3.457-3.1h-7.485v6.2h7.485zM241.578 115.046h18.305v5.098h-18.305v-5.098z" fill="#fff"/><path fill-rule="evenodd" clip-rule="evenodd" d="M248.188 126.262v-18.354h5.085v18.354h-5.085z" fill="#fff"/></g><g filter="url(#filter4_d)" opacity=".7"><path d="M70.605 16.767a8.985 8.985 0 018.985-8.985h240.811a8.985 8.985 0 018.985 8.985v16.174a8.985 8.985 0 01-8.985 8.985H79.591a8.985 8.985 0 01-8.986-8.985V16.767z" fill="#fff"/><rect x="311.865" y="27.473" width="1.797" height="5.391" rx=".899" transform="rotate(-45 311.865 27.473)" fill="#AAA"/><path d="M312.941 20.607a4.718 4.718 0 11-6.672 6.671 4.718 4.718 0 016.672-6.671z" stroke="#AAA" stroke-width="1.348"/><path d="M114.813 28.715c2.252 0 3.246-1.207 3.246-2.604 0-3.12-4.881-2.15-4.881-3.723 0-.617.553-1.044 1.409-1.044.88 0 1.774.301 2.44.968l.831-1.094c-.768-.755-1.837-1.183-3.133-1.183-1.849 0-3.057 1.07-3.057 2.466 0 3.082 4.881 1.987 4.881 3.749 0 .566-.465 1.157-1.673 1.157a3.604 3.604 0 01-2.654-1.17l-.83 1.145c.754.78 1.874 1.333 3.421 1.333zM122.182 28.715c.956 0 1.849-.314 2.465-.893l-.603-.868c-.441.44-1.133.68-1.736.68-1.145 0-1.824-.768-1.925-1.674h4.68v-.327c0-1.912-1.158-3.296-2.982-3.296-1.799 0-3.082 1.422-3.082 3.183 0 1.925 1.346 3.195 3.183 3.195zm1.61-3.698h-3.422c.051-.73.579-1.598 1.699-1.598 1.195 0 1.685.88 1.723 1.598zM131.411 28.564v-4.038c0-1.623-1.183-2.189-2.541-2.189-.969 0-1.85.302-2.554.982l.553.918c.516-.528 1.12-.78 1.799-.78.831 0 1.422.428 1.422 1.132v.906c-.453-.516-1.145-.78-1.975-.78-.994 0-2.101.579-2.101 1.988 0 1.333 1.12 2.012 2.101 2.012.805 0 1.522-.29 1.975-.817v.666h1.321zm-2.768-.755c-.742 0-1.308-.427-1.308-1.094 0-.654.566-1.094 1.308-1.094.566 0 1.132.213 1.447.629v.93c-.315.416-.881.63-1.447.63zM134.444 28.564v-4.138c.264-.44 1.006-.818 1.572-.818.164 0 .29.012.403.038v-1.309c-.78 0-1.51.453-1.975 1.032v-.88h-1.321v6.075h1.321zM140.252 28.715c1.195 0 1.899-.515 2.327-1.082l-.868-.817c-.34.478-.805.73-1.397.73-1.094 0-1.836-.843-1.836-2.026 0-1.183.742-2.013 1.836-2.013.592 0 1.057.227 1.397.705l.868-.793c-.428-.579-1.132-1.082-2.327-1.082-1.837 0-3.133 1.346-3.133 3.183 0 1.837 1.296 3.195 3.133 3.195zM149.184 28.564v-4.302c0-1.245-.654-1.925-1.963-1.925-.956 0-1.736.491-2.138.969v-3.132h-1.321v8.39h1.321v-4.252c.302-.402.88-.805 1.56-.805.742 0 1.22.277 1.22 1.233v3.824h1.321zM157.312 28.564c2.617 0 4.378-1.723 4.378-4.201 0-2.453-1.761-4.19-4.39-4.19h-3.12v8.391h3.132zm-.012-1.295h-1.648v-5.8h1.66c1.862 0 2.869 1.284 2.869 2.894 0 1.597-1.057 2.906-2.881 2.906zM168.495 28.564v-6.076h-1.321v4.265c-.302.402-.88.792-1.547.792-.755 0-1.233-.302-1.233-1.245v-3.812h-1.321v4.303c0 1.232.654 1.924 1.963 1.924.956 0 1.711-.478 2.138-.956v.805h1.321zM172.978 28.715c1.195 0 1.9-.515 2.328-1.082l-.868-.817c-.34.478-.806.73-1.397.73-1.094 0-1.836-.843-1.836-2.026 0-1.183.742-2.013 1.836-2.013.591 0 1.057.227 1.397.705l.868-.793c-.428-.579-1.133-1.082-2.328-1.082-1.836 0-3.132 1.346-3.132 3.183 0 1.837 1.296 3.195 3.132 3.195zM182.162 28.564l-2.566-3.32 2.516-2.756h-1.636l-2.679 2.931v-5.245h-1.321v8.39h1.321V26.93l.855-.88 1.85 2.515h1.66zM186.28 28.564c2.616 0 4.378-1.723 4.378-4.201 0-2.453-1.762-4.19-4.391-4.19h-3.119v8.391h3.132zm-.013-1.295h-1.648v-5.8h1.661c1.862 0 2.868 1.284 2.868 2.894 0 1.597-1.057 2.906-2.881 2.906zM197.463 28.564v-6.076h-1.321v4.265c-.302.402-.881.792-1.547.792-.755 0-1.233-.302-1.233-1.245v-3.812h-1.321v4.303c0 1.232.654 1.924 1.962 1.924.956 0 1.711-.478 2.139-.956v.805h1.321zM201.946 28.715c1.195 0 1.899-.515 2.327-1.082l-.868-.817c-.34.478-.805.73-1.396.73-1.095 0-1.837-.843-1.837-2.026 0-1.183.742-2.013 1.837-2.013.591 0 1.056.227 1.396.705l.868-.793c-.428-.579-1.132-1.082-2.327-1.082-1.837 0-3.132 1.346-3.132 3.183 0 1.837 1.295 3.195 3.132 3.195zM211.13 28.564l-2.567-3.32 2.516-2.756h-1.635l-2.679 2.931v-5.245h-1.321v8.39h1.321V26.93l.855-.88 1.849 2.515h1.661zM216.153 28.728a4.534 4.534 0 003.447-1.535v-3.132h-3.975v1.296h2.516v1.295c-.378.365-1.132.755-1.988.755-1.66 0-2.893-1.283-2.893-3.032 0-1.773 1.233-3.031 2.893-3.031.931 0 1.724.49 2.177 1.12l1.195-.693c-.667-.956-1.736-1.736-3.372-1.736-2.44 0-4.403 1.698-4.403 4.34 0 2.63 1.963 4.353 4.403 4.353zM223.849 28.715c1.938 0 3.12-1.459 3.12-3.195 0-1.749-1.182-3.183-3.12-3.183-1.937 0-3.119 1.434-3.119 3.183 0 1.736 1.182 3.195 3.119 3.195zm0-1.17c-1.119 0-1.748-.943-1.748-2.025 0-1.07.629-2.013 1.748-2.013 1.133 0 1.749.944 1.749 2.013 0 1.082-.616 2.025-1.749 2.025z" fill="#999"/><path fill-rule="evenodd" clip-rule="evenodd" d="M87.543 34.603c5.458 0 9.883-4.425 9.883-9.884 0-5.459-4.425-9.884-9.883-9.884-5.46 0-9.885 4.425-9.885 9.884 0 5.459 4.426 9.884 9.885 9.884z" fill="#fff"/><path fill-rule="evenodd" clip-rule="evenodd" d="M87.62 15.904a8.902 8.902 0 110 17.803 8.902 8.902 0 110-17.803z" fill="#DE5833"/><mask id="a" maskUnits="userSpaceOnUse" x="82" y="17" width="10" height="17"><path fill-rule="evenodd" clip-rule="evenodd" d="M91.326 33.028a8.76 8.76 0 01-3.697.814 8.753 8.753 0 01-4.984-1.552V17.912h8.681v15.116z" fill="#fff"/></mask><g mask="url(#a)"><path fill-rule="evenodd" clip-rule="evenodd" d="M91.263 38.218c-.312-1.453-2.129-4.726-2.804-6.126-.692-1.383-1.367-3.343-1.055-4.603.052-.227-.588-1.977-.415-2.1 1.453-.962 1.834.105 2.422-.332.294-.228.71.175.813-.193.38-1.33-.519-3.64-1.522-4.638-.33-.332-.831-.542-1.385-.647-.225-.298-.57-.595-1.055-.858-.554-.297-1.748-.683-2.37-.788-.433-.07-.537.053-.71.088.173.017.986.42 1.142.438-.156.105-.623 0-.917.122-.156.07-.26.332-.26.455.848-.087 2.18 0 2.96.35-.624.07-1.576.158-1.974.368-1.176.63-1.712 2.1-1.401 3.867.311 1.768 1.678 8.19 2.128 10.344.433 2.152-.934 3.535-1.817 3.92l.935.07-.312.7c1.125.123 2.37-.245 2.37-.245-.241.7-1.937.945-1.937.945s.813.245 2.128-.245c1.315-.507 2.129-.823 2.129-.823l.622 1.646 1.194-1.19.502 1.26c-.035-.018.9-.333.588-1.785z" fill="#D5D7D8"/></g><mask id="b" maskUnits="userSpaceOnUse" x="82" y="17" width="10" height="17"><path fill-rule="evenodd" clip-rule="evenodd" d="M91.708 32.841a8.761 8.761 0 01-4.078 1.002 8.747 8.747 0 01-4.646-1.33V17.86h8.724v14.98z" fill="#fff"/></mask><g mask="url(#b)"><path fill-rule="evenodd" clip-rule="evenodd" d="M91.645 37.92c-.312-1.452-2.129-4.725-2.803-6.125-.693-1.383-1.368-3.343-1.056-4.603.052-.227.052-1.172.242-1.295 1.454-.962 1.35-.035 1.938-.455.294-.227.537-.49.64-.858.381-1.33-.519-3.64-1.522-4.637-.329-.333-.83-.543-1.385-.648-.225-.297-.57-.595-1.055-.857a4.941 4.941 0 00-3.167-.508c.173.017.572.367.727.402-.242.158-.882.14-.865.508a5.139 5.139 0 012.56.403c-.622.07-1.21.227-1.608.437-1.194.63-1.506 1.89-1.194 3.658.311 1.768 1.678 8.208 2.128 10.343.433 2.153-.934 3.535-1.8 3.92l.935.07-.311.7c1.124.123 2.37-.244 2.37-.244-.242.7-1.938.945-1.938.945s.813.245 2.128-.245l2.129-.823.623 1.645 1.193-1.207.502 1.26c-.034-.018.9-.333.589-1.785z" fill="#fff"/></g><path fill-rule="evenodd" clip-rule="evenodd" d="M84.462 23.43c0-.368.294-.666.658-.666.363 0 .657.298.657.665a.661.661 0 01-.657.665.661.661 0 01-.658-.665z" fill="#2D4F8E"/><path fill-rule="evenodd" clip-rule="evenodd" d="M85.24 23.251a.225.225 0 01.45 0c0 .112-.09.225-.224.225-.135 0-.225-.09-.225-.225z" fill="#fff"/><path fill-rule="evenodd" clip-rule="evenodd" d="M88.944 23.027c0-.315.26-.56.57-.56.312 0 .572.262.572.56a.58.58 0 01-.571.577.568.568 0 01-.571-.577z" fill="#2D4F8E"/><path fill-rule="evenodd" clip-rule="evenodd" d="M89.601 22.937c0-.14.112-.225.225-.225.14 0 .225.113.225.225 0 .14-.113.224-.225.224a.241.241 0 01-.225-.224z" fill="#fff"/><path fill-rule="evenodd" clip-rule="evenodd" d="M84.334 21.262c-.703.266-.44.816-.44.816s-.017-.3.475-.583c.474-.3.984-.083.984-.083s-.192-.239-.583-.239c-.125 0-.27.025-.436.09zM88.518 21.474s.156-.236.73-.236c.261 0 .626.19.626.19s-.139-.332-.539-.394a1.267 1.267 0 00-.165-.012c-.579 0-.652.453-.652.453z" fill="#2D4F8E"/><path fill-rule="evenodd" clip-rule="evenodd" d="M87.056 25.887c.07-.4 1.097-1.149 1.829-1.201.73-.052.957-.035 1.566-.174.61-.14 2.177-.54 2.612-.731.435-.21 2.28.104.975.818-.557.313-2.072.888-3.169 1.219-1.08.33-1.74-.314-2.106.226-.279.418-.053 1.01 1.236 1.131 1.74.157 3.43-.783 3.604-.278.19.505-1.498 1.132-2.525 1.149-1.027.017-3.099-.679-3.412-.888-.279-.244-.697-.748-.61-1.27z" fill="#FDD20A"/><path fill-rule="evenodd" clip-rule="evenodd" d="M87.84 31.162s-2.455-1.306-2.49-.783c-.034.54 0 2.698.279 2.872.279.157 2.333-1.062 2.333-1.062l-.122-1.027zM88.78 31.075s1.671-1.27 2.054-1.183c.366.087.453 2.698.122 2.82-.33.122-2.246-.662-2.246-.662l.07-.975z" fill="#65BC46"/><path fill-rule="evenodd" clip-rule="evenodd" d="M87.248 31.302c0 .853-.122 1.218.244 1.306.365.087 1.062 0 1.305-.157.244-.157.035-1.271-.034-1.48-.087-.21-1.515-.035-1.515.33z" fill="#43A244"/><path fill-rule="evenodd" clip-rule="evenodd" d="M87.405 31.11c0 .853-.122 1.236.244 1.306.365.087 1.062 0 1.305-.157.244-.157.035-1.27-.034-1.48-.088-.209-1.515-.035-1.515.331z" fill="#65BC46"/><path d="M108.344 16.767h.899v16.174h-.899V16.767z" fill="#666"/></g><defs><filter id="filter0_d" x="57.747" y="271.212" width="283.638" height="275.576" filterUnits="userSpaceOnUse" color-interpolation-filters="sRGB"><feFlood flood-opacity="0" result="BackgroundImageFix"/><feColorMatrix in="SourceAlpha" values="0 0 0 0 0 0 0 0 0 0 0 0 0 0 0 0 0 0 127 0"/><feOffset/><feGaussianBlur stdDeviation="1.487"/><feColorMatrix values="0 0 0 0 0 0 0 0 0 0 0 0 0 0 0 0 0 0 0.1 0"/><feBlend in2="BackgroundImageFix" result="effect1_dropShadow"/><feBlend in="SourceGraphic" in2="effect1_dropShadow" result="shape"/></filter><filter id="filter1_d" x="302.58" y="424.675" width="21.499" height="21.499" filterUnits="userSpaceOnUse" color-interpolation-filters="sRGB"><feFlood flood-opacity="0" result="BackgroundImageFix"/><feColorMatrix in="SourceAlpha" values="0 0 0 0 0 0 0 0 0 0 0 0 0 0 0 0 0 0 127 0"/><feOffset dy=".896"/><feGaussianBlur stdDeviation=".896"/><feColorMatrix values="0 0 0 0 0 0 0 0 0 0 0 0 0 0 0 0 0 0 0.236158 0"/><feBlend in2="BackgroundImageFix" result="effect1_dropShadow"/><feBlend in="SourceGraphic" in2="effect1_dropShadow" result="shape"/></filter><filter id="filter2_d" x="16.113" y="55.113" width="366.773" height="233.942" filterUnits="userSpaceOnUse" color-interpolation-filters="sRGB"><feFlood flood-opacity="0" result="BackgroundImageFix"/><feColorMatrix in="SourceAlpha" values="0 0 0 0 0 0 0 0 0 0 0 0 0 0 0 0 0 0 127 0"/><feOffset dy="9.913"/><feGaussianBlur stdDeviation="11.4"/><feColorMatrix values="0 0 0 0 0 0 0 0 0 0 0 0 0 0 0 0 0 0 0.1 0"/><feBlend in2="BackgroundImageFix" result="effect1_dropShadow"/><feBlend in="SourceGraphic" in2="effect1_dropShadow" result="shape"/></filter><filter id="filter3_d" x="25.035" y="53.131" width="348.93" height="209.23" filterUnits="userSpaceOnUse" color-interpolation-filters="sRGB"><feFlood flood-opacity="0" result="BackgroundImageFix"/><feColorMatrix in="SourceAlpha" values="0 0 0 0 0 0 0 0 0 0 0 0 0 0 0 0 0 0 127 0"/><feOffset/><feGaussianBlur stdDeviation="1.983"/><feColorMatrix values="0 0 0 0 0 0 0 0 0 0 0 0 0 0 0 0 0 0 0.15 0"/><feBlend in2="BackgroundImageFix" result="effect1_dropShadow"/><feBlend in="SourceGraphic" in2="effect1_dropShadow" result="shape"/></filter><filter id="filter4_d" x="66.64" y="3.816" width="266.712" height="42.075" filterUnits="userSpaceOnUse" color-interpolation-filters="sRGB"><feFlood flood-opacity="0" result="BackgroundImageFix"/><feColorMatrix in="SourceAlpha" values="0 0 0 0 0 0 0 0 0 0 0 0 0 0 0 0 0 0 127 0"/><feOffset/><feGaussianBlur stdDeviation="1.983"/><feColorMatrix values="0 0 0 0 0 0 0 0 0 0 0 0 0 0 0 0 0 0 0.1 0"/><feBlend in2="BackgroundImageFix" result="effect1_dropShadow"/><feBlend in="SourceGraphic" in2="effect1_dropShadow" result="shape"/></filter><clipPath id="clip0"><path fill="#fff" transform="translate(60.72 457.82)" d="M0 0h277.69v39.414H0z"/></clipPath><clipPath id="clip1"><path fill="#fff" transform="translate(75.053 423.78)" d="M0 0h249.025v21.499H0z"/></clipPath><clipPath id="clip2"><path fill="#fff" transform="translate(60.72 274.186)" d="M0 0h277.69v46.58H0z"/></clipPath><radialGradient id="paint0_radial" cx="0" cy="0" r="1" gradientUnits="userSpaceOnUse" gradientTransform="rotate(-90 270.264 -25.236) scale(14.3194)"><stop stop-color="#F6B151"/><stop offset="1" stop-color="#E09D40"/></radialGradient></defs></svg>